# xmcd CD database file
#
# Track frame offsets:
#	150
#	19490
#	38872
#	53141
#	69330
#	81383
#	100601
#	106615
#	119001
#	131571
#	144340
#
# Disc length: 2181 seconds
#
# Revision: 4
# Processed by: cddbd v1.5.2PL0 Copyright (c) Steve Scherf et al.
# Submitted via: CDex 1.72
#
DISCID=9208830b
DTITLE=Bare, Bobby (USA-05-The Moon Was Blue-cty) - The Moon Was Blue
DYEAR=2005
DGENRE=Country
TTITLE0=Are You Sincere
TTITLE1=I Am An Island
TTITLE2=Everybody's Talkin'
TTITLE3=Yesterday When I Was Young
TTITLE4=Love Letters In The Sand
TTITLE5=The Ballad Of Lucy Jordan
TTITLE6=My Heart Cries For You
TTITLE7=It's All In The Game
TTITLE8=Shine On Harvest Moon
TTITLE9=Am I That Easy To Forget
TTITLE10=Fellow Travelers
EXTD=YEAR: 2005
EXTT0=
EXTT1=
EXTT2=
EXTT3=
EXTT4=
EXTT5=
EXTT6=
EXTT7=
EXTT8=
EXTT9=
EXTT10=
PLAYORDER=
